# xmcd
#
# Track frame offsets:
#       150
#       21039
#       39044
#       56767
#       78518
#       101435
#       117302
#       133614
#       149151
#       166343
#       188938
#       200343
#
# Disc length: 2942 seconds
#
# Revision: 0
# Processed by: cddbd v1.5.1PL0 Copyright (c) Steve Scherf et al.
# Submitted via: WhereIsIt 3.60
#
DISCID=a30b7c0c
DTITLE=Cee Cee Michaela - Everybody's talkin'
DYEAR=2001
DGENRE=
TTITLE0=So much luv
TTITLE1=Everybody's talkin'
TTITLE2=Mr. River
TTITLE3=Trupain
TTITLE4=Be wise be strong be u
TTITLE5=Live your life
TTITLE6=Yield to the light
TTITLE7=O.K.
TTITLE8=Corrupt
TTITLE9=Harriet
TTITLE10=Darkness upon the face
TTITLE11=Blues in f minor
EXTD=
EXTT0=
EXTT1=
EXTT2=
EXTT3=
EXTT4=
EXTT5=
EXTT6=
EXTT7=
EXTT8=
EXTT9=
EXTT10=
EXTT11=
PLAYORDER=
